Normalized EMG Linear Envelopes
nRows=116
nColumns=4

endheader
time	 med_gas_r	  soleus_r	 tib_ant_r	
3.25	  0.009939	  0.007729	  0.001609	
3.3125	  0.009955	  0.007570	  0.001594	
3.375	  0.009817	  0.007173	  0.001633	
3.4375	  0.009532	  0.006782	  0.001705	
3.5	  0.009141	  0.006489	  0.001760	
3.5625	  0.009047	  0.006405	  0.001777	
3.625	  0.009189	  0.006579	  0.001782	
3.6875	  0.009289	  0.006915	  0.001805	
3.75	  0.009145	  0.007315	  0.001850	
3.8125	  0.008758	  0.007674	  0.001884	
3.875	  0.008259	  0.007948	  0.001875	
3.9375	  0.007881	  0.008005	  0.001813	
4	  0.007785	  0.007713	  0.001720	
4.0625	  0.008126	  0.007260	  0.001642	
4.125	  0.008733	  0.006774	  0.001631	
4.1875	  0.009240	  0.006311	  0.001704	
4.25	  0.009072	  0.005873	  0.001822	
4.3125	  0.008279	  0.005569	  0.001907	
4.375	  0.007553	  0.005699	  0.001904	
4.4375	  0.007108	  0.006857	  0.001833	
4.5	  0.006765	  0.010019	  0.001754	
4.5625	  0.006472	  0.016080	  0.001688	
4.625	  0.006354	  0.024677	  0.001665	
4.6875	  0.006348	  0.032366	  0.001701	
4.75	  0.006611	  0.031554	  0.001805	
4.8125	  0.007276	  0.023833	  0.001960	
4.875	  0.008188	  0.016291	  0.002077	
4.9375	  0.008823	  0.011441	  0.002074	
5	  0.008687	  0.008661	  0.001894	
5.0625	  0.007594	  0.006215	  0.001514	
5.125	  0.005863	  0.002930	  0.000919	
5.1875	  0.004147	 -0.001801	  0.000247	
5.25	  0.003287	 -0.006749	  0.000002	
5.3125	  0.004757	 -0.007369	  0.001259	
5.375	  0.010879	  0.005469	  0.005677	
5.4375	  0.024444	  0.044982	  0.014929	
5.5	  0.046779	  0.123084	  0.029186	
5.5625	  0.074737	  0.235879	  0.044959	
5.625	  0.098543	  0.343254	  0.055657	
5.6875	  0.111070	  0.399262	  0.058897	
5.75	  0.112965	  0.404132	  0.055344	
5.8125	  0.107603	  0.378757	  0.047508	
5.875	  0.096916	  0.329771	  0.039068	
5.9375	  0.086868	  0.275898	  0.033213	
6	  0.083332	  0.233719	  0.031095	
6.0625	  0.085363	  0.211867	  0.031761	
6.125	  0.093783	  0.211912	  0.034141	
6.1875	  0.104249	  0.213632	  0.035561	
6.25	  0.106999	  0.203552	  0.034997	
6.3125	  0.097458	  0.178886	  0.032767	
6.375	  0.080695	  0.143633	  0.029419	
6.4375	  0.067879	  0.119627	  0.025825	
6.5	  0.064325	  0.111809	  0.022918	
6.5625	  0.073880	  0.124268	  0.021936	
6.625	  0.095093	  0.154198	  0.022792	
6.6875	  0.126379	  0.197905	  0.025173	
6.75	  0.169178	  0.255216	  0.028173	
6.8125	  0.221055	  0.342523	  0.031830	
6.875	  0.275057	  0.448003	  0.036145	
6.9375	  0.318686	  0.529082	  0.040594	
7	  0.339758	  0.562076	  0.044479	
7.0625	  0.341634	  0.563450	  0.045978	
7.125	  0.327001	  0.563275	  0.044355	
7.1875	  0.300013	  0.549619	  0.040397	
7.25	  0.272468	  0.512014	  0.035749	
7.3125	  0.251993	  0.462679	  0.031310	
7.375	  0.233940	  0.411214	  0.027292	
7.4375	  0.214923	  0.358125	  0.024970	
7.5	  0.189488	  0.308911	  0.024111	
7.5625	  0.162287	  0.264294	  0.023777	
7.625	  0.131963	  0.230424	  0.023280	
7.6875	  0.107999	  0.208815	  0.022431	
7.75	  0.090027	  0.191919	  0.021115	
7.8125	  0.076217	  0.176598	  0.019812	
7.875	  0.066968	  0.166333	  0.018985	
7.9375	  0.062386	  0.157576	  0.018583	
8	  0.061204	  0.150815	  0.018024	
8.0625	  0.060658	  0.142326	  0.017004	
8.125	  0.059912	  0.130691	  0.016271	
8.1875	  0.060169	  0.121391	  0.016051	
8.25	  0.059886	  0.110831	  0.016154	
8.3125	  0.059275	  0.099548	  0.016525	
8.375	  0.059911	  0.093324	  0.016662	
8.4375	  0.059845	  0.097017	  0.016357	
8.5	  0.057560	  0.108046	  0.015901	
8.5625	  0.058371	  0.120181	  0.015758	
8.625	  0.061879	  0.122327	  0.015846	
8.6875	  0.063204	  0.117570	  0.015992	
8.75	  0.058653	  0.109769	  0.016317	
8.8125	  0.049901	  0.096313	  0.016486	
8.875	  0.038411	  0.072205	  0.015924	
8.9375	  0.028495	  0.047615	  0.014766	
9	  0.022023	  0.030538	  0.013226	
9.0625	  0.018700	  0.021065	  0.011343	
9.125	  0.017517	  0.016397	  0.009636	
9.1875	  0.016991	  0.012941	  0.008418	
9.25	  0.016306	  0.009763	  0.007573	
9.3125	  0.015549	  0.008036	  0.007576	
9.375	  0.016139	  0.010138	  0.009465	
9.4375	  0.021975	  0.019397	  0.014416	
9.5	  0.040356	  0.039465	  0.023704	
9.5625	  0.079659	  0.070913	  0.036993	
9.625	  0.141896	  0.109119	  0.049993	
9.6875	  0.216042	  0.147456	  0.058035	
9.75	  0.274251	  0.182426	  0.061756	
9.8125	  0.310633	  0.221967	  0.063673	
9.875	  0.338716	  0.267594	  0.065985	
9.9375	  0.361956	  0.302705	  0.067519	
10	  0.370642	  0.318029	  0.064893	
10.0625	  0.348191	  0.295219	  0.055937	
10.125	  0.292261	  0.236053	  0.043535	
10.1875	  0.213052	  0.163332	  0.030311	
10.25	  0.133046	  0.096931	  0.019077	
10.3125	  0.075530	  0.049136	  0.011602	
10.375	  0.039534	  0.022578	  0.007420	
10.4375	  0.018889	  0.010515	  0.005304	
